<?xml version="1.0" standalone="no"?>
<!DOCTYPE svg PUBLIC "-//W3C//DTD SVG 20010904//EN"
 "http://www.w3.org/TR/2001/REC-SVG-20010904/DTD/svg10.dtd">
<svg version="1.0" xmlns="http://www.w3.org/2000/svg"
 width="416.000000pt" height="416.000000pt" viewBox="0 0 416.000000 416.000000"
 preserveAspectRatio="xMidYMid meet">
<metadata>
Created by potrace 1.11, written by Peter Selinger 2001-2013
</metadata>
<g transform="translate(0.000000,416.000000) scale(0.100000,-0.100000)"
fill="#000000" stroke="none">
<path d="M2233 2870 c-97 -23 -103 -29 -103 -106 0 -55 2 -64 18 -64 10 0 22
3 26 7 20 20 122 40 207 41 73 0 109 -5 162 -23 161 -55 281 -174 338 -336 18
-51 23 -86 24 -172 l0 -109 35 -13 c76 -27 91 -36 136 -77 155 -143 156 -372
1 -515 -100 -92 -119 -96 -567 -97 l-375 -1 -3 -68 -3 -68 408 3 c451 4 449 4
559 73 147 94 232 245 232 416 0 169 -83 316 -233 414 -50 32 -50 33 -52 87
-2 122 -66 282 -152 386 -85 102 -211 183 -338 218 -85 23 -233 25 -320 4z"/>
<path d="M1908 2688 c-33 -35 -72 -80 -85 -101 l-23 -37 -79 5 c-265 19 -493
-166 -534 -434 l-13 -85 -50 -11 c-170 -38 -301 -217 -287 -394 11 -152 104
-277 250 -337 58 -23 61 -23 486 -24 l428 0 -3 67 -3 68 -405 1 c-265 1 -419
5 -446 12 -22 7 -59 28 -82 48 -141 120 -111 328 59 413 55 28 68 30 140 27
55 -3 79 0 78 8 0 6 -6 38 -13 70 -26 124 16 249 115 340 71 66 138 93 240 95
56 1 90 -3 133 -19 32 -12 58 -20 59 -18 1 1 17 33 34 69 17 37 46 83 62 102
29 33 31 40 31 116 0 102 -9 103 -92 19z"/>
</g>
</svg>
